<svg xmlns="http://www.w3.org/2000/svg" width="500" height="500">
    <style>
        line {
        stroke: #0045ab;
        stroke-width: 15;
        }
        rect {
        fill: #0045ab;
        }
        path {
        fill: #22cc;
        }
        path {
        stroke: #000;
        stroke-width:5
        }
        .bad {
        fill: #b11;
        }
        .good {
        fill: #181;
        }
    </style>
    <g>
        <line x1="20" y1="20" x2="200" y2="400"/>
        <line x1="250" y1="20" x2="250" y2="400"/>
        <line x1="480" y1="20" x2="300" y2="400"/>
    </g>
    <g>
        <rect x="-25" y="-25" height="150" width="150" rx="20"/>
        <rect x="175" y="-25" height="150" width="150" rx="20"/>
        <rect x="375" y="-25" height="150" width="150" rx="20"/>
    </g>
    <g>
        <rect x="50" y="350" height="200" width="400" rx="40"/>
        <path class="good" d="M85,434 a7.07,7.07,0,0,0,0,10   l30,30   a14.14,14.14,0,0,0,20,0    l80,-80  a7.07,7.07,0,0,0,0,-10   l-10,-10 a7.07,7.07,0,0,0,-10,0    l-65,65 a7.07,7.07,0,0,1,-10,0   l-15,-15 a7.07,7.07,0,0,0,-10,0   z"/>
        <!--                  start                                    bottom outer curve                                          top right                                    bottom inner curve -->
        <!--                  M90,440 A7.07,7.07,0,0,0,90,450 L120,480 A14.14,14.14,0,0,0,140,480 L220,400 A7.07,7.07,0,0,0,220,390 L210,380 A7.07,7.07,0,0,0,200,380 L135,445 A7.07,7.07,0,0,1,125,445 L110,430 A7.07,7.07,0,0,0,100,430 Z -->
        <path class="bad"  d="M295,380 a7.07,7.07,0,0,0,0,10    l30,30   a7.07,7.07,0,0,1,0,10    l-30,30  a7.07,7.07,0,0,0,0,10    l10,10   a7.07,7.07,0,0,0,10,0    l30,-30  a7.07,7.07,0,0,1,10,0    l30,30   a7.07,7.07,0,0,0,10,0    l10,-10  a7.07,7.07,0,0,0,0,-10   l-30,-30 a7.07,7.07,0,0,1,0,-10   l30,-30  a7.07,7.07,0,0,0,0,-10   l-10,-10 a7.07,7.07,0,0,0,-10,0   l-30,30  a7.07,7.07,0,0,1,-10,0   l-30,-30 a7.07,7.07,0,0,0,-10,0   z"/>
        <!--                  start                                        left middle curve                                                                                    bottom middle curve                                                                                    right middle curve                                                                                     top middle curve                                             -->
        <!--                  M280,390 A7.07,7.07,0,0,0,280,400 L310,430 A7.07,7.07,0,0,1,310,440 L280,470 A7.07,7.07,0,0,0,280,480 L290,490 A7.07,7.07,0,0,0,300,490 L330,460 A7.07,7.07,0,0,1,340,460 L370,490 A7.07,7.07,0,0,0,380,490 L390,480 A7.07,7.07,0,0,0,390,470 L360,440 A7.07,7.07,0,0,1,360,430 L390,400 A7.07,7.07,0,0,0,390,390 L380,380 A7.07,7.07,0,0,0,370,380 L340,410 A7.07,7.07,0,0,1,330,410 L300,380 A7.07,7.07,0,0,0,290,380 Z -->
    </g>
</svg>